<svg version="1.1" id="atc-logo" xmlns="http://www.w3.org/2000/svg" xmlns:xlink="http://www.w3.org/1999/xlink" x="0px" y="0px"
	 viewBox="0 0 1920 1080" style="enable-background:new 0 0 1920 1080;" xml:space="preserve">
<style type="text/css">
	.st0{opacity:0.1;}
	.st1{fill:url(#SVGID_1_);stroke:url(#SVGID_2_);stroke-miterlimit:10;}
	.st2{fill:url(#SVGID_3_);stroke:url(#SVGID_4_);stroke-miterlimit:10;}
	.st3{opacity:0.4;fill:url(#SVGID_5_);}
	.st4{fill:url(#SVGID_6_);}
	.st5{fill:url(#SVGID_7_);}
	.st6{fill:#333338;}
	.st7{fill:url(#SVGID_8_);}
	.st8{opacity:0.2;fill:#333338;}
	.st9{fill:url(#SVGID_9_);}
	.st10{opacity:0.2;fill:#FFFFFF;}
	.st11{fill:#EBEBEB;}
	.st12{fill:#FFFFFF;}
	.st13{fill:none;stroke:url(#SVGID_10_);stroke-miterlimit:10;}
	.st14{fill:url(#SVGID_11_);}
	.st15{fill:url(#SVGID_12_);}
	.st16{fill:url(#SVGID_13_);}
	.st17{fill:url(#SVGID_14_);}
	.st18{opacity:0.3;}
</style>
<circle class="st0" cx="1290" cy="1654.2" r="25.2"/>
<circle class="st0" cx="1198" cy="1872.8" r="10"/>
<g>

		<linearGradient id="SVGID_1_" gradientUnits="userSpaceOnUse" x1="-2107.2263" y1="910.4292" x2="-1973.2465" y2="1041.0044" gradientTransform="matrix(2.6388 0 0 2.7076 6343.7759 -845.6631)">
		<stop  offset="0" style="stop-color:#FFFFFF;stop-opacity:0.1"/>
		<stop  offset="0.1375" style="stop-color:#FFFFFF;stop-opacity:8.624675e-02"/>
		<stop  offset="1" style="stop-color:#FFFFFF;stop-opacity:0"/>
	</linearGradient>
	<linearGradient id="SVGID_2_" gradientUnits="userSpaceOnUse" x1="1137.0645" y1="1973.2516" x2="782.9364" y2="1619.1235">
		<stop  offset="0" style="stop-color:#FFFFFF;stop-opacity:0.2"/>
		<stop  offset="0.2488" style="stop-color:#F8F7F7;stop-opacity:0.2"/>
		<stop  offset="0.3984" style="stop-color:#E8E6E7;stop-opacity:0.2"/>
		<stop  offset="0.5219" style="stop-color:#D3D1D3;stop-opacity:0.2"/>
		<stop  offset="0.6311" style="stop-color:#B9B5B9;stop-opacity:0.2"/>
		<stop  offset="0.7308" style="stop-color:#9A969B;stop-opacity:0.2"/>
		<stop  offset="0.8237" style="stop-color:#78747B;stop-opacity:0.2"/>
		<stop  offset="0.9113" style="stop-color:#57535C;stop-opacity:0.2"/>
		<stop  offset="0.9926" style="stop-color:#35353F;stop-opacity:0.2"/>
		<stop  offset="1" style="stop-color:#32333D;stop-opacity:0.2"/>
	</linearGradient>
	<ellipse class="st1" cx="960" cy="1796.2" rx="250" ry="249.8"/>

		<linearGradient id="SVGID_3_" gradientUnits="userSpaceOnUse" x1="-4241.2461" y1="2374.6941" x2="-4020.7742" y2="2374.6941" gradientTransform="matrix(-1.2223 -1.2223 1.2223 -1.2223 -6855.792 -492.5104)">
		<stop  offset="0" style="stop-color:#FFFFFF;stop-opacity:0.1"/>
		<stop  offset="0.1375" style="stop-color:#FFFFFF;stop-opacity:8.624675e-02"/>
		<stop  offset="1" style="stop-color:#FFFFFF;stop-opacity:0"/>
	</linearGradient>

		<linearGradient id="SVGID_4_" gradientUnits="userSpaceOnUse" x1="900.076" y1="1654.3241" x2="1292.4213" y2="1654.3241" gradientTransform="matrix(0.7071 -0.7071 0.7071 0.7071 -848.7999 1259.6198)">
		<stop  offset="0" style="stop-color:#FFFFFF;stop-opacity:0.2"/>
		<stop  offset="0.2488" style="stop-color:#F8F7F7;stop-opacity:0.2"/>
		<stop  offset="0.3984" style="stop-color:#E8E6E7;stop-opacity:0.2"/>
		<stop  offset="0.5219" style="stop-color:#D3D1D3;stop-opacity:0.2"/>
		<stop  offset="0.6311" style="stop-color:#B9B5B9;stop-opacity:0.2"/>
		<stop  offset="0.7308" style="stop-color:#9A969B;stop-opacity:0.2"/>
		<stop  offset="0.8237" style="stop-color:#78747B;stop-opacity:0.2"/>
		<stop  offset="0.9113" style="stop-color:#57535C;stop-opacity:0.2"/>
		<stop  offset="0.9926" style="stop-color:#35353F;stop-opacity:0.2"/>
		<stop  offset="1" style="stop-color:#32333D;stop-opacity:0.2"/>
	</linearGradient>
	<path class="st2" d="M961.4,1519.5c76.4-76.4,198.7-78,273.1-3.6c74.4,74.4,72.8,196.7-3.6,273.1c-76.4,76.4-198.7,78-273.1,3.6
		C883.4,1718.2,885,1595.9,961.4,1519.5z"/>

		<radialGradient id="SVGID_5_" cx="-1666.1897" cy="4608.4009" r="62.4922" gradientTransform="matrix(2.8 0 0 0.4001 5625.3311 111.8248)" gradientUnits="userSpaceOnUse">
		<stop  offset="0" style="stop-color:#010101;stop-opacity:0.5"/>
		<stop  offset="1" style="stop-color:#010101;stop-opacity:0"/>
	</radialGradient>
	<ellipse class="st3" cx="960" cy="1955.6" rx="175" ry="25"/>

		<radialGradient id="SVGID_6_" cx="-1392.3932" cy="4538.0176" r="48.6148" gradientTransform="matrix(1.8 0 0 0.3726 3634.0671 50.8295)" gradientUnits="userSpaceOnUse">
		<stop  offset="0" style="stop-color:#010101;stop-opacity:0.2"/>
		<stop  offset="1" style="stop-color:#010101;stop-opacity:0"/>
	</radialGradient>
	<ellipse class="st4" cx="1127.8" cy="1741.7" rx="87.5" ry="18.1"/>

		<radialGradient id="SVGID_7_" cx="-1618.5043" cy="4717.835" r="48.6148" gradientTransform="matrix(1.8 0 0 0.3726 3634.0671 50.8295)" gradientUnits="userSpaceOnUse">
		<stop  offset="0" style="stop-color:#010101;stop-opacity:0.2"/>
		<stop  offset="1" style="stop-color:#010101;stop-opacity:0"/>
	</radialGradient>
	<ellipse class="st5" cx="720.8" cy="1808.7" rx="87.5" ry="18.1"/>
	<g>
		<g>
			<polygon class="st6" points="1092.7,1601.5 1089.3,1618.3 1157.6,1618.3 1155.5,1629.1 1087.1,1629.2 1083.8,1645.9
				1152.1,1645.9 1148.3,1665.1 1120.8,1674.2 1096.9,1665.1 1098.5,1656.8 1081.8,1656.8 1077.8,1676.9 1117.2,1692 1162.7,1676.9
				1177.8,1601.5 			"/>
		</g>
		<g>

				<linearGradient id="SVGID_8_" gradientUnits="userSpaceOnUse" x1="585.3878" y1="-1934.1769" x2="585.3878" y2="-2024.6899" gradientTransform="matrix(1 0 0 1 542.3775 3624.1799)">
				<stop  offset="0" style="stop-color:#9797A1"/>
				<stop  offset="0.2024" style="stop-color:#A8A7AF"/>
				<stop  offset="0.4736" style="stop-color:#B9B9BF"/>
				<stop  offset="0.7415" style="stop-color:#C4C4C9"/>
				<stop  offset="1" style="stop-color:#C8C8CD"/>
			</linearGradient>
			<polygon class="st7" points="1092.7,1599.5 1089.3,1616.3 1157.6,1616.3 1155.5,1627.1 1087.1,1627.2 1083.8,1643.9
				1152.1,1643.9 1148.3,1663.1 1120.8,1672.2 1096.9,1663.1 1098.5,1654.8 1081.8,1654.8 1077.8,1674.9 1117.2,1690 1162.7,1674.9
				1177.8,1599.5 			"/>
		</g>
	</g>
	<g>
		<g>
			<path class="st6" d="M720.5,1772.9l-49-13.6l-10.9-122.4h120l-10.9,122.4L720.5,1772.9z M720.5,1772.9"/>
			<path class="st8" d="M760.3,1751.5l9.3-104.6h-49.1v115.6L760.3,1751.5z M760.3,1751.5"/>
			<path class="st6" d="M720.6,1707.3v-15h-19.9l-1.4-15.4h21.3v-15h-0.1h-37.6l0.4,4l3.7,41.4H720.6z M720.6,1707.3"/>
			<path class="st6" d="M720.6,1731.3L720.6,1731.3l-16.8-4.5l-1.1-12h-8.1h-7l2.1,23.6l30.8,8.5l0.1,0V1731.3z M720.6,1731.3"/>
			<path class="st6" d="M755.5,1692.3h-4h-30.9v15H739l-1.7,19.5l-16.8,4.5v15.6l30.8-8.5l0.2-2.5l3.5-39.5L755.5,1692.3z
				 M755.5,1692.3"/>
			<path class="st6" d="M758.2,1661.9h-37.6v9.3v5.7v0h36.2l0,0h0l0.3-3.4l0.7-7.6L758.2,1661.9z M758.2,1661.9"/>
		</g>
		<g>
			<g>
				<linearGradient id="SVGID_9_" gradientUnits="userSpaceOnUse" x1="720.5944" y1="1770.9102" x2="720.5944" y2="1634.9196">
					<stop  offset="0" style="stop-color:#9797A1"/>
					<stop  offset="0.2024" style="stop-color:#A8A7AF"/>
					<stop  offset="0.4736" style="stop-color:#B9B9BF"/>
					<stop  offset="0.7415" style="stop-color:#C4C4C9"/>
					<stop  offset="1" style="stop-color:#C8C8CD"/>
				</linearGradient>
				<path class="st9" d="M720.5,1770.9l-49-13.6l-10.9-122.4h120l-10.9,122.4L720.5,1770.9z M720.5,1770.9"/>
				<path class="st10" d="M760.3,1749.5l9.3-104.6h-49.1v115.6L760.3,1749.5z M760.3,1749.5"/>
				<path class="st11" d="M720.6,1705.3v-15h-19.9l-1.4-15.4h21.3v-15h-0.1h-37.6l0.4,4l3.7,41.4H720.6z M720.6,1705.3"/>
				<path class="st11" d="M720.6,1729.3L720.6,1729.3l-16.8-4.5l-1.1-12h-8.1h-7l2.1,23.6l30.8,8.5l0.1,0V1729.3z M720.6,1729.3"/>
				<path class="st12" d="M755.5,1690.3h-4h-30.9v15H739l-1.7,19.5l-16.8,4.5v15.6l30.8-8.5l0.2-2.5l3.5-39.5L755.5,1690.3z
					 M755.5,1690.3"/>
				<path class="st12" d="M758.2,1659.9h-37.6v9.3v5.7v0h36.2l0,0h0l0.3-3.4l0.7-7.6L758.2,1659.9z M758.2,1659.9"/>
			</g>
		</g>
	</g>
	<circle cx="938" cy="1547.5" r="8"/>

		<linearGradient id="SVGID_10_" gradientUnits="userSpaceOnUse" x1="816.473" y1="1941.0521" x2="515.3587" y2="1941.0521" gradientTransform="matrix(-0.7071 0.7071 -0.7071 -0.7071 2563.9802 2604.5635)">
		<stop  offset="0" style="stop-color:#FFFFFF;stop-opacity:0.2"/>
		<stop  offset="0.2488" style="stop-color:#F8F7F7;stop-opacity:0.2"/>
		<stop  offset="0.3984" style="stop-color:#E8E6E7;stop-opacity:0.2"/>
		<stop  offset="0.5219" style="stop-color:#D3D1D3;stop-opacity:0.2"/>
		<stop  offset="0.6311" style="stop-color:#B9B5B9;stop-opacity:0.2"/>
		<stop  offset="0.7308" style="stop-color:#9A969B;stop-opacity:0.2"/>
		<stop  offset="0.8237" style="stop-color:#78747B;stop-opacity:0.2"/>
		<stop  offset="0.9113" style="stop-color:#57535C;stop-opacity:0.2"/>
		<stop  offset="0.9926" style="stop-color:#35353F;stop-opacity:0.2"/>
		<stop  offset="1" style="stop-color:#32333D;stop-opacity:0.2"/>
	</linearGradient>
	<path class="st13" d="M826.6,1808.9c-58.6,58.6-153.6,58.6-212.1,0.1c-58.6-58.6-58.5-153.5,0.1-212.1
		c58.6-58.6,153.6-58.6,212.1-0.1C885.3,1655.4,885.2,1750.3,826.6,1808.9z"/>
	<g>
		<path class="st0" d="M1085,1707.8c-0.6,4.7-1.2,8.8-1.7,12.9c-0.2,1.8-0.5,3.5-0.7,5.3c-0.7,5.8-1.3,11.6-2,17.4
			c-0.6,4.7-1.2,9.4-1.8,14.1c-0.8,6.4-1.6,12.7-2.4,19.1c-0.9,7.1-1.9,14.2-2.8,21.3c-0.7,5.3-1.3,10.7-1.9,16
			c-0.7,5.6-1.5,11.1-2.2,16.7c-0.5,3.7-0.9,7.3-1.3,11c-0.5,4.3-1.1,8.6-1.7,12.9c-0.4,3.6-0.9,7.1-1.3,10.7
			c-0.2,1.4-0.3,2.9-0.6,4.3c-0.1,0.5-0.6,1.1-1,1.3c-10.2,5.7-20.4,11.3-30.6,16.9c-8.8,4.9-17.7,9.8-26.5,14.7
			c-14.4,8-28.8,15.9-43.3,23.9c-1,0.6-2.1,1.1-3.1,1.8c-1.2,0.7-2.2,0.6-3.4,0c-12.4-6.9-24.7-13.7-37.1-20.6
			c-11.8-6.6-23.7-13.1-35.5-19.7c-9.5-5.3-19-10.5-28.5-15.8c-1.3-0.7-1.9-1.6-2-3.2c-0.6-6.4-1.5-12.8-2.2-19.1
			c-0.5-4-0.9-8-1.3-12c-0.5-4.5-1.1-9-1.6-13.5c-0.5-4-0.9-7.9-1.4-11.9c-0.6-4.9-1.1-9.8-1.7-14.7c-0.5-4-0.9-7.9-1.3-11.9
			c-0.5-4.6-1.1-9.2-1.6-13.8c-0.5-3.9-0.9-7.7-1.3-11.6c-0.5-4.7-1.1-9.3-1.6-14c-0.5-4.1-0.9-8.2-1.4-12.3
			c-0.5-4.5-1.1-9-1.6-13.5c-0.3-2.6-0.5-5.2-0.8-7.7c-0.1-1.1-0.2-2.2-0.4-3.3c-0.3-1.3,0.1-2.1,1.3-2.5c4.1-1.4,8.2-2.9,12.2-4.3
			c9.3-3.3,18.7-6.6,28-10c9.3-3.3,18.6-6.6,27.8-9.9c9.8-3.5,19.6-7,29.4-10.5c7.9-2.8,15.8-5.6,23.7-8.3c0.5-0.2,1.2-0.2,1.7,0
			c7,2.3,13.9,4.7,20.9,7.1c8.1,2.8,16.3,5.5,24.4,8.3c8.4,2.9,16.8,5.8,25.2,8.7c8,2.7,15.9,5.3,23.9,8.1
			c9.1,3.1,18.1,6.2,27.2,9.4c0.8,0.3,1.6,0.6,2.4,0.7C1084.6,1706.5,1085.1,1707.2,1085,1707.8z"/>
		<g>
			<linearGradient id="SVGID_11_" gradientUnits="userSpaceOnUse" x1="960" y1="1916.209" x2="960" y2="1676.1664">
				<stop  offset="0" style="stop-color:#8C181B"/>
				<stop  offset="1.433271e-02" style="stop-color:#8F191C"/>
				<stop  offset="0.1509" style="stop-color:#A91C20"/>
				<stop  offset="0.3011" style="stop-color:#BE1E23"/>
				<stop  offset="0.4699" style="stop-color:#CE1E25"/>
				<stop  offset="0.6726" style="stop-color:#D81F26"/>
				<stop  offset="1" style="stop-color:#DB1F26"/>
			</linearGradient>
			<path class="st14" d="M1073.3,1716.1c-0.6,4.3-1.1,8-1.5,11.7c-0.2,1.6-0.4,3.2-0.6,4.8c-0.6,5.2-1.2,10.5-1.8,15.7
				c-0.5,4.3-1.1,8.5-1.6,12.8c-0.7,5.8-1.4,11.6-2.2,17.3c-0.8,6.4-1.7,12.9-2.5,19.3c-0.6,4.8-1.2,9.7-1.8,14.5
				c-0.6,5.1-1.4,10.1-2,15.2c-0.4,3.3-0.8,6.6-1.2,9.9c-0.5,3.9-1,7.8-1.5,11.7c-0.4,3.2-0.8,6.5-1.2,9.7c-0.2,1.3-0.3,2.6-0.6,3.9
				c-0.1,0.5-0.5,1-0.9,1.2c-9.2,5.1-18.5,10.2-27.7,15.3c-8,4.4-16,8.9-24.1,13.3c-13.1,7.2-26.1,14.4-39.2,21.7
				c-0.9,0.5-1.9,1-2.8,1.6c-1.1,0.7-2,0.5-3,0c-11.2-6.2-22.4-12.4-33.6-18.7c-10.7-6-21.5-11.9-32.2-17.9
				c-8.6-4.8-17.2-9.6-25.8-14.3c-1.2-0.7-1.7-1.5-1.8-2.9c-0.6-5.8-1.4-11.6-2-17.4c-0.4-3.6-0.8-7.3-1.2-10.9
				c-0.5-4.1-1-8.2-1.5-12.3c-0.4-3.6-0.8-7.2-1.2-10.8c-0.5-4.4-1-8.9-1.5-13.3c-0.4-3.6-0.8-7.2-1.2-10.8c-0.5-4.2-1-8.3-1.5-12.5
				c-0.4-3.5-0.8-7-1.2-10.5c-0.5-4.2-1-8.4-1.5-12.7c-0.4-3.7-0.8-7.5-1.3-11.2c-0.5-4.1-1-8.2-1.5-12.2c-0.3-2.3-0.5-4.7-0.7-7
				c-0.1-1-0.2-2-0.4-2.9c-0.3-1.2,0.1-1.9,1.2-2.3c3.7-1.3,7.4-2.6,11.1-3.9c8.5-3,16.9-6,25.4-9c8.4-3,16.8-6,25.2-9
				c8.9-3.2,17.7-6.4,26.6-9.5c7.1-2.5,14.3-5.1,21.4-7.5c0.5-0.2,1.1-0.2,1.6,0c6.3,2.1,12.6,4.3,19,6.4c7.4,2.5,14.8,5,22.2,7.5
				c7.6,2.6,15.2,5.3,22.9,7.9c7.2,2.5,14.4,4.8,21.7,7.3c8.2,2.8,16.5,5.7,24.7,8.5c0.7,0.2,1.5,0.5,2.2,0.7
				C1073,1714.8,1073.5,1715.5,1073.3,1716.1z M1034.9,1853.2c-0.5-1.1-0.9-2.1-1.3-3c-4.3-9.2-8.6-18.3-12.9-27.5
				c-4.4-9.4-8.8-18.9-13.3-28.3c-5.8-12.4-11.6-24.8-17.4-37.1c-4.6-9.9-9.3-19.7-13.9-29.6c-5.6-11.9-11.1-23.8-16.7-35.8
				c-0.2-0.4-0.6-0.8-0.8-1.1c-0.3,0.4-0.7,0.7-0.9,1.2c-5.1,11.4-10.2,22.8-15.3,34.1c-4.9,11-9.8,21.9-14.8,32.9
				c-5.4,12-10.8,24-16.2,36c-4.5,10-9,19.9-13.4,29.8c-3.7,8.1-7.3,16.2-10.9,24.3c-0.5,1.2-1,2.4-1.6,3.9c0.8,0,1.4,0.1,2,0.1
				c8.1-0.2,16.2-0.3,24.3-0.5c1,0,1.5-0.4,1.8-1.2c1.4-3.5,2.7-6.9,4.1-10.3c3.1-7.8,6.2-15.6,9.3-23.4c0.5-1.3,1.2-1.7,2.6-1.7
				c10.5,0.1,21,0.2,31.5,0.2c10.2,0,20.3-0.1,30.5-0.3c1,0,1.5,0.2,1.9,1.2c5,11.6,10,23.1,15,34.7c0.4,1,1,1.2,1.9,1.2
				c3.5,0,7,0.1,10.5,0.2c4.3,0.1,8.5,0.2,12.8,0.2C1034,1853.4,1034.3,1853.3,1034.9,1853.2z"/>
			<linearGradient id="SVGID_12_" gradientUnits="userSpaceOnUse" x1="960.3117" y1="1795.4427" x2="960.3117" y2="1741.3645">
				<stop  offset="0" style="stop-color:#CE181E"/>
				<stop  offset="0.1011" style="stop-color:#D01A21"/>
				<stop  offset="0.3177" style="stop-color:#D61D24"/>
				<stop  offset="0.5786" style="stop-color:#DA1E26"/>
				<stop  offset="1" style="stop-color:#DB1F26"/>
			</linearGradient>
			<path class="st15" d="M935.7,1795.4c7.7-18.2,15.2-36.1,22.8-54c0.2,0,0.3,0,0.5-0.1c8.6,17.9,17.2,35.9,25.9,54.1
				C968.4,1795.4,952.2,1795.4,935.7,1795.4z"/>
		</g>
		<path class="st10" d="M1058.1,1724.9c-0.7-0.1-1.3-0.4-1.9-0.6c-7.3-2.5-14.6-5-21.9-7.5c-6.4-2.2-12.8-4.3-19.2-6.5
			c-6.8-2.3-13.5-4.7-20.3-7c-6.5-2.2-12.6-4.4-19.1-6.6c-5.4-1.8-11.9-3.7-15.7-5.5v212.2c0-0.5,1.1-1,2-1.4
			c11.6-6.4,22.9-12.8,34.5-19.2c7.1-3.9,14.1-7.9,21.2-11.8c8.2-4.5,16.3-9.1,24.5-13.6c0.4-0.2,0.7-0.7,0.8-1.1
			c0.2-1.1,0.3-2.3,0.5-3.4c0.4-2.9,0.7-5.7,1.1-8.6c0.4-3.5,0.9-6.9,1.3-10.4c0.4-2.9,0.7-5.9,1.1-8.8c0.6-4.5,1.2-9,1.8-13.5
			c0.5-4.3,1-8.6,1.6-12.9c0.7-5.7,1.5-11.4,2.3-17.1c0.7-5.1,1.3-10.3,1.9-15.4c0.5-3.8,1-7.5,1.4-11.3c0.6-4.7,1.1-9.3,1.6-14
			c0.2-1.4,0.4-2.9,0.6-4.3c0.4-3.3,0.9-6.6,1.4-10.4C1059.6,1725.7,1059.1,1725.1,1058.1,1724.9z"/>
	</g>
	<circle cx="715.5" cy="1852.8" r="5"/>
	<circle class="st0" cx="910.4" cy="1694.8" r="25.2"/>
</g>
<g>
	<g>
		<path d="M979.2,495.4c-9-8.4-19.8-15.1-31.9-19.9c-23.8-9.3-52.6-9.8-80.1,0.6c-13.8,5.3-26.2,14.5-37,27.7
			c-5.5,7.3-10.7,16.4-15.4,27.2c-4.9,11.1-7.4,23.7-7.4,37.6c0,14.1,2.8,27.4,8.4,39.6c5.5,12.1,13.1,22.7,22.4,31.6
			c9.3,8.9,20.3,15.9,32.6,20.8c11.3,4.6,23.5,6.9,36,6.9c1.2,0,2.3,0,3.5-0.1c15.1-0.5,28.5-3.3,39.8-8.6
			c9.9-4.6,18.1-9.7,24.2-15.3v23.9h35.5V565.1c0-12.9-2.8-25.6-8.6-39C996.7,515.1,989.3,504.8,979.2,495.4z M908,503.7
			c9,0,17.6,1.6,25.6,4.8c8,3.2,15,7.6,20.8,13.2c5.8,5.5,10.6,12.2,14,19.9c3.4,7.6,5.2,15.9,5.2,24.8c0,9.1-1.3,17.6-3.8,25.3
			c-2.4,7.3-6.8,14.3-13.2,20.6c-6.2,6.4-13.4,11.4-21.5,14.9c-8,3.5-16.6,5.2-25.6,5.2c-9.2,0-17.9-1.6-25.9-4.8
			c-8-3.2-15-7.7-21-13.3c-5.9-5.6-10.6-12.4-14-20.3c-3.4-7.8-5.1-16.4-5.1-25.6c0-9,1.7-17.4,5.1-25.1c3.4-7.8,8-14.7,13.8-20.6
			c5.8-5.8,12.6-10.5,20.4-13.9C890.6,505.4,899.1,503.7,908,503.7z"/>
		<polygon points="1104.2,412.4 1064.7,412.4 1064.7,475.2 1028.1,475.2 1028.1,509.4 1064.7,509.4 1064.7,667.6 1104.2,667.6
			1104.2,509.4 1143.5,509.4 1143.5,475.2 1104.2,475.2 		"/>
		<path d="M1319.1,599.9c-7.2,10.8-15.5,18.9-24.8,24c-9.6,5.3-20.7,8-33.1,8c-9.6,0-18-1.6-25.6-4.9c-8.1-3.5-14.9-8-20.7-13.7
			c-5.9-5.8-10.4-12.5-13.7-20.5c-3.3-8-4.9-16.5-4.9-25.5c0-9.1,1.8-17.6,5.3-25.3c3.6-7.7,8.5-14.5,14.5-20.2
			c6.1-5.7,13.2-10.2,21.3-13.4c8.1-3.2,16.8-4.8,25.8-4.8c12.3,0,22.7,2.6,32,8c10,5.8,17.9,11.9,23.6,22.5l1.7,3.1h39.4l-3.1-8.1
			c-3.4-8.8-8.1-16.6-15.2-25.2c-6-7.2-13.3-13.5-22.2-19.2c-8.1-5.1-16.9-9.1-27-12.1c-9.5-2.8-19.4-4.3-29.5-4.3
			c-13.5,0-26.7,2.6-39.2,7.7c-12.4,5-23.4,12-32.8,20.8c-9.4,8.8-16.9,19.3-22.4,31.3c-5.6,12.1-8.4,25.4-8.4,39.5
			c0,14.5,2.8,28.1,8.4,40.3c5.5,12.1,13.1,22.7,22.5,31.5c9.3,8.8,20.4,15.7,33,20.7c12.5,4.9,26,7.5,40,7.5
			c19.6,0,38.2-5.7,55.3-16.9c17.5-11.5,29.3-25.8,37.3-45.2l3.4-8.3h-39L1319.1,599.9z"/>
	</g>
	<linearGradient id="SVGID_13_" gradientUnits="userSpaceOnUse" x1="657.8345" y1="667.611" x2="657.8345" y2="412.389">
		<stop  offset="0" style="stop-color:#9E0B0F"/>
		<stop  offset="0.1083" style="stop-color:#B51218"/>
		<stop  offset="0.229" style="stop-color:#C8161D"/>
		<stop  offset="0.3623" style="stop-color:#D71921"/>
		<stop  offset="0.5131" style="stop-color:#E21B22"/>
		<stop  offset="0.6959" style="stop-color:#EA1C24"/>
		<stop  offset="1" style="stop-color:#ED1C24"/>
	</linearGradient>
	<path class="st16" d="M659.1,667.6c-17-16.7-27.5-40-27.5-65.8c0-50.9,41.1-92.2,91.8-92.2c11.4,0,22.3,2.1,32.3,5.9l-54.9-103.1
		c0,0-66.7,58.2-102.8,109.9c-36.1,51.7-36.5,63.9-37.9,81.8c-1.4,17.9,15,33.8,31.4,43.7c16.4,9.9,37.9,16,48.2,17.9
		C649.9,667.6,659.1,667.6,659.1,667.6L659.1,667.6z"/>
	<linearGradient id="SVGID_14_" gradientUnits="userSpaceOnUse" x1="635.9468" y1="612.9722" x2="773.4417" y2="612.9722">
		<stop  offset="0" style="stop-color:#9E0B0F"/>
		<stop  offset="0.1998" style="stop-color:#B91319"/>
		<stop  offset="0.4039" style="stop-color:#CE181F"/>
		<stop  offset="0.6071" style="stop-color:#DE1A22"/>
		<stop  offset="0.807" style="stop-color:#E81C23"/>
		<stop  offset="1" style="stop-color:#ED1C24"/>
	</linearGradient>
	<path class="st17" d="M671.6,586.3c-11.5-0.7-22.6-2.5-33.3-5.2c-1.5,6.6-2.3,13.5-2.3,20.6c0,25.3,10.2,48.3,26.6,64.9
		c18.8,1.1,51.2-1.6,81.2-44.3c23-32.8,29.7-63.3,29.7-63.3C747.5,577.7,711.2,588.6,671.6,586.3z"/>
</g>
<g>
	<g class="st18">
		<g>
			<path d="M927.7,3493.8c-13.1-12.3-25.1-25.9-35.9-40.3c-10.8-14.4-20.5-29.8-28.7-45.9c-8.2-16.2-15-33-20.4-50.4
				c-5.4-17.3-9.4-35.1-11.6-53.2l-0.5-3.4l-0.3-3.4l-0.6-6.8c-0.2-2.3-0.4-4.5-0.6-6.8l-0.3-6.8l-0.3-6.8l-0.1-1.7l0-0.9l0-1l0-3.4
				l0.1-6.7l0-3.4c0-1.1,0-2.2,0.1-3.4l0.8-13.8c0-1.2,0.2-2.3,0.3-3.4l0.4-3.4l0.8-6.8l0.4-3.4c0.1-1.1,0.4-2.3,0.5-3.4l1.1-6.8
				c0.4-2.3,0.7-4.5,1.1-6.8l1.4-6.7l1.5-6.7l0.4-1.7l0.4-1.7l0.9-3.3l1.8-6.6l0.9-3.3c0.3-1.1,0.7-2.2,1-3.3
				c1.4-4.4,2.8-8.7,4.3-13.1l4.9-12.9c6.9-17,15.2-33.4,24.9-49c9.7-15.6,20.6-30.5,32.8-44.3c12.2-13.8,25.6-26.5,40-38
				c14.4-11.5,29.7-21.9,45.8-30.8c16.1-9,33.1-16.4,50.6-22.4c17.5-6,35.5-10.5,53.7-13.6l13.8-1.9c2.3-0.4,4.6-0.5,6.9-0.7
				l6.9-0.6l3.5-0.3l1.7-0.1l1.7-0.1l6.9-0.2l6.9-0.2l0.9,0l1,0l1.7,0l3.4,0l1.7,0l1.8,0l3.5,0.1c2.4,0,4.7,0.2,7,0.3
				c2.3,0.1,4.6,0.3,6.9,0.5c2.3,0.2,4.6,0.4,6.9,0.6c9.2,0.9,18.4,2.2,27.5,3.9c18.2,3.4,36.2,8.4,53.6,14.9l-12.8,14.5l-47.6-88.5
				l-47.4-88.5l-47.3-88.6l-47.3-88.6l17.5,3.2c-9.8,8.6-19.7,17.5-29.4,26.4c-9.8,8.9-19.5,17.9-29.1,26.9
				c-19.3,18-38.4,36.3-57.3,54.8c-18.9,18.4-37.6,37.1-56,56c-18.4,18.9-36.6,38.1-54.4,57.5c-17.9,19.4-35.4,39.1-52.5,59.2
				c-17.1,20.1-33.7,40.5-49.7,61.3l-11.8,15.8l-11.5,16l-22.7,32.5l-11.1,16.4l-5.5,8.2l-2.8,4.1l-2.7,4.1
				c-7.1,11.1-14.5,22-21.3,33.3l-5.2,8.4c-0.9,1.4-1.7,2.8-2.6,4.2l-2.5,4.3l-9.9,17l-9.4,17.2c-3,5.8-5.8,11.7-8.8,17.5
				c-1.4,2.9-2.7,5.9-4,8.9l-2,4.4c-0.7,1.5-1.3,3-1.9,4.5c-2.3,6-4.9,12-6.8,18.1l-1.5,4.6l-0.8,2.3c-0.2,0.8-0.4,1.5-0.6,2.3
				l-2.5,9.3c-1.4,6.2-2.9,12.5-3.8,18.9c-0.3,1.6-0.6,3.2-0.8,4.8l-0.6,4.8l-0.6,4.8c-0.2,1.6-0.3,3.3-0.5,4.9
				c-0.3,3.3-0.7,6.5-1,9.8l-0.4,4.9l-0.2,2.5l-0.1,0.6c0,0.3,0-0.1,0,0.1l0,0.3l-0.1,1.2l-0.1,2.5c0,0.8-0.1,1.7-0.1,2.4l0,4.4
				l0.3,4.6c0.1,1.5,0.4,3.1,0.5,4.6c0.8,6.1,2.3,12.2,4.2,18.1c0.5,1.5,1,3,1.6,4.4l1.7,4.4l1.9,4.3c0.6,1.4,1.4,2.8,2.1,4.3
				c2.9,5.6,6.2,11.1,9.8,16.4c7.3,10.6,15.7,20.4,24.8,29.6c2.3,2.3,4.6,4.5,7,6.8c2.4,2.2,4.8,4.4,7.3,6.5
				c4.9,4.3,10,8.4,15.2,12.4c10.4,7.9,21.2,15.3,32.5,22c2.8,1.7,5.7,3.4,8.5,5c2.9,1.6,5.7,3.2,8.6,4.7l8.8,4.5
				c2.9,1.5,5.9,2.9,8.9,4.3c11.9,5.6,24,10.9,36.3,15.6c24.6,9.5,49.8,17.7,75.4,24c6.4,1.6,12.8,2.9,19.4,4.1
				c6.5,1.2,13,2.2,19.6,3.1c6.6,0.9,13.1,1.6,19.7,2.1C914.5,3493.1,921.1,3493.6,927.7,3493.8z M927.7,3493.8
				c-13.3,0.2-26.5-0.4-39.8-1.6c-6.6-0.6-13.2-1.3-19.8-2.2c-6.6-0.9-13.2-2-19.7-3.3c-13.1-2.6-26-5.8-38.8-9.4
				c-12.8-3.6-25.5-7.6-38.1-12c-12.6-4.4-25-9.3-37.3-14.6c-3-1.4-6.1-2.7-9.2-4.1l-9.1-4.3c-3-1.5-6-3.1-9-4.6
				c-3-1.5-5.9-3.2-8.8-4.8c-11.8-6.5-23.1-13.8-34-21.6c-5.5-3.9-10.8-8-16-12.3c-2.6-2.1-5.2-4.3-7.7-6.5c-2.5-2.3-5-4.5-7.5-6.9
				c-9.8-9.3-18.9-19.5-27-30.6c-4-5.6-7.7-11.4-11-17.5c-0.8-1.5-1.7-3-2.4-4.6l-2.3-4.7l-2-4.8c-0.7-1.6-1.2-3.3-1.9-4.9
				c-2.3-6.6-4.2-13.4-5.3-20.4c-0.2-1.8-0.5-3.5-0.7-5.3l-0.4-5.3c-0.1-1.8-0.1-3.7-0.1-5.5c0-1,0-1.8,0-2.6l0.1-2.5l0-1.2l0-0.8
				l0-0.6l0.2-2.5l0.3-5c0.2-3.3,0.5-6.7,0.8-10c0.1-1.7,0.2-3.3,0.4-5l0.5-5l0.5-5.1c0.2-1.7,0.5-3.4,0.7-5.1
				c0.9-6.8,2.2-13.5,3.6-20.2l2.5-10c0.2-0.8,0.4-1.7,0.6-2.5l0.8-2.4l1.5-4.9c1.9-6.6,4.5-12.9,6.8-19.3c0.6-1.6,1.2-3.2,1.9-4.7
				l2-4.7c1.3-3.1,2.6-6.2,4-9.3c2.9-6.1,5.8-12.2,8.7-18.2l9.3-17.9c6.5-11.7,13-23.4,20-34.8c6.7-11.5,14-22.7,21-34.1l2.7-4.2
				l2.7-4.2l5.5-8.4l11-16.7l22.4-33l11.6-16.4l11.9-16.2c16-21.4,32.7-42.3,49.8-62.7c17.1-20.4,34.7-40.5,52.5-60.3
				c17.8-19.8,36.1-39.1,54.6-58.3c18.5-19.2,37.2-38,56.1-56.7c19-18.6,38.2-37,57.6-55.2c9.7-9.1,19.5-18.1,29.3-27.1
				c9.8-9,19.7-17.9,29.8-26.7l10.7-9.4l6.7,12.6l47.1,88.7l47,88.8l46.9,88.8l46.8,88.9l12.9,24.4l-25.7-9.9
				c-16.2-6.2-32.9-11.2-50-14.5c-8.5-1.7-17.1-3-25.8-4c-2.2-0.2-4.3-0.5-6.5-0.6c-2.2-0.2-4.3-0.4-6.5-0.5
				c-2.2-0.1-4.4-0.3-6.5-0.4l-3.2-0.1l-1.6-0.1l-1.7,0l-3.4-0.1l-1.7,0l-0.7,0l-0.8,0l-6.5,0.1l-6.5,0.1l-1.6,0
				c-0.5,0-1.1,0.1-1.6,0.1l-3.3,0.2l-6.5,0.5c-2.2,0.2-4.4,0.2-6.5,0.6l-13,1.6c-17.2,2.6-34.3,6.6-50.9,12
				c-16.6,5.4-32.7,12.2-48.2,20.4c-15.4,8.2-30.2,17.8-44,28.5c-13.9,10.7-26.8,22.6-38.8,35.4c-11.9,12.9-22.7,26.9-32.2,41.6
				c-9.6,14.8-17.9,30.3-24.9,46.4c-7,16.2-12.5,33-16.6,50.1l-1.6,6.4c-0.5,2.2-0.8,4.3-1.3,6.5l-1.3,6.5c-0.2,1.1-0.4,2.2-0.6,3.3
				l-0.5,3.3l-0.9,6.6l-0.5,3.3c-0.2,1.1-0.3,2.2-0.4,3.3l-1.2,13.1c-0.1,1.1-0.2,2.2-0.2,3.3l-0.1,3.4l-0.3,6.7l-0.1,3.4l0,0.7
				l0,0.8l0,1.7l0.1,6.6l0.1,6.6c0.1,2.2,0.3,4.4,0.4,6.6l0.4,6.6l0.2,3.3l0.4,3.3c0.5,4.4,1,8.8,1.5,13.2l2.2,13.1
				c0.3,2.2,0.9,4.4,1.3,6.5l1.4,6.5c0.8,4.4,2.1,8.6,3.2,12.9c4.7,17.2,10.8,34,18.2,50.2l5.9,12c0.9,2,2.1,3.9,3.2,5.9l3.3,5.9
				l1.6,2.9c0.5,1,1.2,1.9,1.7,2.9l3.5,5.7c1.2,1.9,2.3,3.8,3.6,5.7l3.8,5.5C903.9,3466.9,915.2,3480.8,927.7,3493.8z"/>
		</g>
		<g>
			<path d="M970.6,3214.3l-7.2-0.4l-7.2-0.5l-7.2-0.6l-7.2-0.7c-4.8-0.5-9.6-1.1-14.4-1.7c-4.8-0.6-9.6-1.3-14.4-2
				c-4.8-0.7-9.6-1.5-14.3-2.3c-4.8-0.8-9.5-1.7-14.3-2.6l-7.1-1.5l-7.1-1.5l-7.1-1.6l-7.1-1.7l0.9-0.5c-2.8,13-4.8,26.1-5.9,39.3
				c-0.5,6.6-0.9,13.2-1,19.8c-0.1,3.3-0.1,6.6,0,9.9l0,1.2l0,0.6l0,0.6l0.1,2.5l0.2,5l0.2,5c0.1,1.7,0.1,3.3,0.3,5l0.9,9.8
				c0.2,1.6,0.3,3.3,0.5,4.9l0.7,4.9l1.5,9.8l2,9.7l1,4.8c0.3,1.6,0.8,3.2,1.2,4.8l2.4,9.6c0.4,1.6,0.9,3.2,1.4,4.7l1.5,4.7l1.5,4.7
				c0.2,0.8,0.5,1.6,0.7,2.3l0.8,2.3l3.4,9.2l0.8,2.3c0.3,0.8,0.6,1.5,0.9,2.3l1.9,4.5l1.9,4.5c0.6,1.5,1.2,3,2,4.5
				c2.9,5.9,5.5,11.9,8.8,17.6c1.6,2.9,3.1,5.8,4.7,8.6l5.1,8.4c0.9,1.4,1.7,2.8,2.6,4.2l2.7,4.1c1.8,2.7,3.6,5.4,5.5,8.1l5.8,7.8
				c1,1.3,1.9,2.6,2.9,3.9l3.1,3.8l6.2,7.5l6.5,7.2l3.3,3.6l3.4,3.5l6.8,6.9l-5.2-2.4c11.7,0.4,23.4,0.2,35-0.7
				c11.6-0.9,23.1-2.4,34.4-4.7c11.3-2.3,22.5-5.3,33.4-9.1c10.9-3.8,21.5-8.3,31.8-13.5l3.9-1.9l3.8-2.1c2.5-1.4,5.1-2.7,7.5-4.2
				c2.5-1.5,5-2.9,7.4-4.4l7.3-4.7c9.6-6.4,18.9-13.4,27.9-20.7c2.3-1.8,4.4-3.8,6.6-5.7l3.3-2.8c1.1-1,2.1-2,3.2-2.9l6.4-5.9
				l6.2-6.2l3.1-3.1c1-1,2-2.1,3-3.2l6-6.4c2-2.1,3.9-4.4,5.8-6.5c1.9-2.2,3.9-4.3,5.8-6.6l5.6-6.8l2.8-3.4l2.7-3.5
				c3.6-4.6,7.3-9.2,10.7-14l5.2-7.1l0.3-0.4l0.2-0.2l0.1-0.1c0.1-0.2-0.1,0.1,0,0.1l0.6-0.9l1.3-1.9l2.5-3.7l10.2-14.8
				c6.3-9.9,12.8-19.6,18.7-29.9l4.6-7.6l1.1-1.9l1.1-1.9l2.2-3.9l4.3-7.7c1.4-2.6,2.9-5.1,4.3-7.8l8.2-15.7l7.8-15.9
				c2.6-5.3,4.9-10.8,7.5-16.1c1.3-2.7,2.4-5.4,3.6-8.1l3.5-8.2c2.3-5.5,4.5-11,6.7-16.5l3.2-8.3l1.6-4.2l1.5-4.2
				c2-5.6,3.9-11.2,5.7-16.8c0.9-2.8,1.8-5.6,2.6-8.5c0.8-2.8,1.7-5.7,2.4-8.4l9.9,6.5l-9.9,6.4l-4.9,3.2l-2.5,1.6
				c-0.8,0.5-1.7,1-2.5,1.5l-10.1,5.9l-5.1,2.9c-0.8,0.5-1.7,1-2.6,1.4l-2.6,1.4l-10.4,5.4c-1.7,0.9-3.4,1.8-5.2,2.7l-5.3,2.5
				c-7.1,3.2-14,6.7-21.3,9.5l-10.8,4.4l-2.7,1.1l-2.7,1l-5.5,2l-10.9,4c-1.8,0.7-3.7,1.3-5.5,1.9l-5.5,1.8l-11.1,3.5
				c-1.8,0.6-3.7,1.1-5.6,1.6l-5.6,1.5l-11.2,3.1c-1.9,0.6-3.8,0.9-5.6,1.4l-5.6,1.3l-11.3,2.7c-1.9,0.5-3.8,0.8-5.7,1.2l-5.7,1.1
				l-11.4,2.2c-1.9,0.4-3.8,0.7-5.7,1l-5.7,0.9l-11.4,1.8l-2.9,0.4l-2.9,0.3l-5.7,0.7c-7.7,0.8-15.3,1.9-23,2.3l-11.5,0.9l-5.8,0.4
				l-5.8,0.2l-11.5,0.4c-3.8,0.1-7.7,0.3-11.5,0.3l-11.6,0l-5.8,0c-1.9,0-3.9,0-5.8-0.1L970.6,3214.3z M970.6,3214.3l23.1,0.8
				c1.9,0.1,3.8,0.1,5.8,0.1l5.8,0l11.5-0.1c3.9,0.1,7.7-0.2,11.5-0.4l11.5-0.6l5.8-0.3l5.7-0.5l11.5-1.1c7.7-0.6,15.3-1.9,22.9-2.9
				l5.7-0.8l2.9-0.4l2.8-0.5l11.4-2.1l5.7-1c1.9-0.3,3.8-0.7,5.6-1.1l11.2-2.6l5.6-1.3c1.9-0.4,3.8-0.8,5.6-1.4l11.1-3l5.5-1.5
				c1.8-0.5,3.7-1,5.5-1.6l11-3.5l5.5-1.8c1.8-0.6,3.7-1.1,5.5-1.8l10.8-4l5.4-2c1.8-0.7,3.6-1.3,5.3-2.1l10.6-4.5l5.3-2.2l2.6-1.1
				l2.6-1.2l10.4-4.9c7-3.2,13.6-6.9,20.4-10.5l5.1-2.7c1.7-0.9,3.3-1.9,4.9-2.9l9.8-5.8l2.5-1.5c0.8-0.5,1.6-1,2.4-1.5l4.8-3.1
				l9.6-6.2c0.8-0.5,1.6-1,2.4-1.6l2.3-1.7l4.6-3.3l9.2-6.7l13.2-9.5l-3.3,16.1c-0.6,3.2-1.3,6.1-2,9.1c-0.7,3-1.5,5.9-2.2,8.9
				c-1.6,5.9-3.2,11.7-5,17.5l-1.3,4.4l-1.4,4.3l-2.8,8.7c-2,5.7-3.9,11.5-6,17.2l-3.2,8.5c-1.1,2.8-2.1,5.7-3.3,8.5l-3.4,8.4
				c-1.2,2.8-2.2,5.6-3.5,8.4l-7.3,16.7l-7.8,16.5c-1.3,2.8-2.7,5.4-4.1,8.1l-4.2,8.1c-2.7,5.4-5.7,10.7-8.7,16
				c-5.8,10.7-12.4,21.1-18.7,31.6c-3.3,5.1-6.6,10-9.9,15l-2.5,3.7l-1.2,1.9l-0.6,0.9l-0.8,1.1l-5.3,7.5
				c-7.1,10-14.7,19.6-22.5,29.1c-1.9,2.4-4,4.6-6,7c-2,2.3-4,4.7-6.1,6.9l-6.3,6.7c-1.1,1.1-2.1,2.3-3.2,3.3l-3.3,3.2
				c-2.2,2.2-4.4,4.3-6.6,6.5l-6.8,6.3c-1.1,1-2.3,2.1-3.4,3.1l-3.5,3c-2.4,2-4.7,4.1-7.1,6l-7.3,5.8l-1.8,1.4l-1.9,1.4l-3.8,2.7
				l-3.8,2.7c-1.3,0.9-2.6,1.7-3.9,2.6c-2.6,1.7-5.1,3.5-7.8,5.2c-10.5,6.7-21.4,12.7-32.6,18c-11.3,5.3-22.9,9.9-34.8,13.6
				c-11.9,3.7-24,6.6-36.3,8.6c-12.3,2-24.6,3.1-37,3.5c-12.4,0.4-24.7-0.1-36.9-1l-3.3-0.3l-1.9-2.1l-6.8-7.6l-3.4-3.8l-3.2-4
				l-6.4-7.9l-6.1-8.2l-3-4.1c-1-1.4-1.9-2.8-2.8-4.2l-5.6-8.5c-1.8-2.9-3.5-5.8-5.3-8.7l-2.6-4.4c-0.9-1.5-1.6-3-2.4-4.5l-4.8-9
				c-1.6-3-2.9-6.1-4.4-9.1c-3-6-5.5-12.4-8.1-18.6c-0.7-1.5-1.2-3.1-1.8-4.7l-1.7-4.8l-1.7-4.8c-0.3-0.8-0.6-1.6-0.8-2.4l-0.7-2.4
				l-3-9.7l-0.7-2.4c-0.2-0.8-0.4-1.6-0.6-2.4l-1.2-4.9l-1.2-4.9c-0.4-1.6-0.9-3.3-1.2-4.9l-2-9.9c-0.3-1.6-0.7-3.3-1-4.9l-0.8-5
				l-1.5-10l-1-10l-0.5-5c-0.2-1.7-0.2-3.4-0.3-5l-0.5-10.1c-0.1-1.7-0.1-3.3-0.1-5l0-5l0-5l0-2.5l0-0.6l0-0.7l0-1.3
				c0.1-3.3,0.2-6.7,0.4-10c0.4-6.7,0.9-13.3,1.7-20c1.6-13.3,3.9-26.4,7-39.4l0.2-0.7l0.7,0.2l7,1.8l7,1.8l7.1,1.7l7.1,1.6
				c4.7,1,9.5,2,14.2,2.9c4.7,0.9,9.5,1.7,14.3,2.5l7.2,1.1l7.2,1c4.8,0.6,9.6,1.2,14.4,1.8l7.2,0.7l7.2,0.7l7.2,0.6L970.6,3214.3z"
				/>
		</g>
	</g>
	<g class="st0">
		<path d="M840.8,3564c-58.4-57.5-94.6-137.7-94.6-226.4c0-175.1,141.3-317.1,315.7-317.1c39.3,0,76.6,7.2,111.1,20.4l-188.7-354.7
			c0,0-229.5,200.3-353.5,378.1c-124,177.9-125.7,219.9-130.5,281.3c-4.8,61.5,51.7,116.4,107.9,150.4c56.3,34,130.2,55,165.7,61.5
			C809.3,3564,840.8,3564,840.8,3564L840.8,3564z"/>
		<path d="M883.7,3284.5c-39.5-2.3-77.9-8.5-114.4-17.9c-5.2,22.8-8,46.6-8,71c0,87.1,35,166,91.6,223.3
			c64.8,3.7,176.1-5.6,279.1-152.5c79.1-112.8,102.2-217.7,102.2-217.7C1145,3254.7,1019.9,3292.4,883.7,3284.5z"/>
	</g>
</g>
</svg>
